<svg width="94" height="97" viewBox="0 0 94 97" fill="none" xmlns="http://www.w3.org/2000/svg">
<path d="M89.3147 55.9438L86.4322 54.5797C85.3505 54.064 84.4382 53.2508 83.8025 52.2353C83.1669 51.2199 82.8341 50.0443 82.8432 48.8465V48.7663C82.8338 47.568 83.1664 46.3918 83.8021 45.3756C84.4378 44.3595 85.3501 43.5455 86.4322 43.0291L89.3147 41.669C95.9668 38.5276 92.703 28.4814 85.4728 29.8496L82.3414 30.4393C81.1756 30.6626 79.9702 30.5491 78.8667 30.112C77.7631 29.675 76.8071 28.9326 76.1108 27.9719L75.9703 27.7954C75.2694 26.8355 74.8565 25.6961 74.7797 24.5103C74.7029 23.3245 74.9655 22.1414 75.5367 21.0993L77.0703 18.2909C80.6031 11.8395 72.0521 5.6329 67.0098 10.985L64.8299 13.2959C64.0065 14.1669 62.9519 14.7857 61.7896 15.0799C60.6272 15.374 59.4051 15.3313 58.2661 14.9569L58.1818 14.9288C57.0383 14.5678 56.0219 13.8877 55.2523 12.9686C54.4827 12.0495 53.992 10.9297 53.838 9.74122L53.4366 6.58776C52.5012 -0.702106 41.9348 -0.702106 40.9914 6.58776L40.59 9.74122C40.4327 10.9266 39.9412 12.0428 39.1727 12.9592C38.4042 13.8757 37.3905 14.5547 36.2502 14.9168L36.1619 14.9448C35.024 15.3239 33.8016 15.3712 32.6378 15.0813C31.474 14.7915 30.4168 14.1763 29.5901 13.3079L27.4142 10.997C22.3679 5.64493 13.8169 11.8516 17.3577 18.3029L18.8872 21.1113C19.456 22.1521 19.7172 23.3329 19.6404 24.5162C19.5637 25.6995 19.1521 26.8368 18.4537 27.7954L18.3212 27.9759C17.6245 28.9363 16.6685 29.6784 15.565 30.1154C14.4616 30.5524 13.2564 30.6661 12.0906 30.4433L8.95522 29.8536C1.72901 28.4855 -1.53884 38.5316 5.11328 41.673L7.99574 43.0411C9.07784 43.5575 9.9902 44.3715 10.6259 45.3876C11.2615 46.4038 11.5942 47.58 11.5848 48.7783V48.8586C11.5939 50.0563 11.2611 51.2319 10.6254 52.2473C9.98974 53.2628 9.07752 54.0761 7.99574 54.5918L5.11328 55.9559C-1.53884 59.0893 1.72901 69.1194 8.95522 67.7633L12.0906 67.1695C13.2568 66.9481 14.4619 67.063 15.5652 67.5006C16.6684 67.9382 17.6243 68.6806 18.3212 69.6409L18.4537 69.8215C19.154 70.7809 19.5663 71.9199 19.6424 73.1051C19.7185 74.2902 19.4551 75.4725 18.8832 76.5135L17.3537 79.322C13.8169 85.7573 22.3679 91.988 27.4142 86.6158L29.5901 84.3049C30.4164 83.4358 31.4733 82.8199 32.6372 82.5293C33.801 82.2387 35.0236 82.2854 36.1619 82.664L36.2502 82.6921C37.3917 83.0554 38.4062 83.7356 39.1753 84.6535C39.9444 85.5713 40.4365 86.6888 40.594 87.8756L40.9954 91.0251C41.9308 98.319 52.4972 98.319 53.4406 91.0251L53.842 87.8756C53.9981 86.6883 54.4897 85.5701 55.259 84.652C56.0283 83.734 57.0436 83.0541 58.1858 82.6921L58.2701 82.664C59.4083 82.2854 60.6309 82.2387 61.7948 82.5293C62.9586 82.8199 64.0156 83.4358 64.8419 84.3049L67.0218 86.6158C72.0641 91.9679 80.6151 85.7573 77.0823 79.3099L75.5488 76.5015C74.9782 75.4626 74.7148 74.2831 74.7895 73.1004C74.8641 71.9176 75.2736 70.7805 75.9703 69.8215L76.1028 69.6409C76.7993 68.6802 77.7551 67.9376 78.8585 67.4999C79.9619 67.0623 81.1672 66.9477 82.3334 67.1695L85.4647 67.7633C92.703 69.1194 95.9668 59.0893 89.3147 55.9438Z" stroke="#041E42" stroke-miterlimit="10"/>
</svg>
