<svg width="202" height="60" viewBox="0 0 202 60" fill="none" xmlns="http://www.w3.org/2000/svg">
    <path d="M9.05998 59.7598H3.22339C1.08866 59.6931 0.15332 59.0826 0.15332 57.0411V44.7104H1.4391V57.0114C1.50326 58.1236 1.93268 58.4499 3.22339 58.4721H9.05998V59.7598Z" fill="white"/>
    <path d="M14.3728 59.9775C11.6927 59.9775 10.8018 58.6256 10.8018 56.7274C10.8018 54.5697 12.5861 53.4575 15.4389 53.4575C16.2015 53.4575 17.3787 53.5663 17.9661 53.806V53.4575C17.9661 50.9489 16.7025 50.1629 15.3748 50.1629C14.0598 50.1698 12.7609 50.4527 11.5619 50.9934V49.8144C12.7534 49.2461 14.055 48.9466 15.3748 48.937C17.3985 48.937 19.2296 49.985 19.2296 53.4526V58.0324C19.2296 59.3176 20.819 58.7294 21.2977 58.4254V59.5796C20.8405 59.8218 20.334 59.9562 19.817 59.9726C18.4004 59.9726 18.1388 59.2533 18.0302 58.6651C17.2257 59.4338 15.3526 59.9775 14.3728 59.9775ZM17.9661 54.9182C17.1306 54.6826 16.2648 54.5727 15.397 54.592C13.3042 54.592 12.0629 55.3977 12.0629 56.7274C12.0629 57.8841 12.6527 58.7046 14.3728 58.7046C15.36 58.7046 16.9863 58.3784 17.9661 57.6147V54.9182Z" fill="white"/>
    <path d="M32.4462 59.8463C29.7463 59.8463 28.6357 59.258 28.6357 56.9026V44.2754H29.8993V56.9026C29.8993 58.2768 30.6816 58.6031 32.4462 58.6031V59.8463Z" fill="white"/>
    <path d="M34.166 54.4807C34.166 50.6646 36.5846 48.9419 39.546 48.9419C42.5075 48.9419 44.9014 50.672 44.9014 54.4807C44.9014 58.2894 42.4853 59.9774 39.546 59.9774C36.6068 59.9774 34.166 58.2992 34.166 54.4807ZM43.6403 54.4807C43.6403 51.537 41.7894 50.1208 39.546 50.1208C37.3027 50.1208 35.4296 51.537 35.4296 54.4807C35.4296 57.4243 37.2805 58.801 39.546 58.801C41.8116 58.801 43.6403 57.4268 43.6403 54.4807Z" fill="white"/>
    <path d="M55.442 59.7152C54.4522 59.9114 53.4451 60.0066 52.4361 59.9994C49.9978 59.9994 47.4287 58.0592 47.4287 54.4804C47.4929 50.9263 49.9756 48.9639 52.4361 48.9639C53.4451 48.9747 54.4512 49.0765 55.442 49.2679V50.5333C54.4509 50.3466 53.4446 50.2523 52.4361 50.2516C50.6518 50.2516 48.712 51.7765 48.712 54.5027V54.4804C48.712 57.2288 50.6296 58.7117 52.4361 58.7117C53.4442 58.7234 54.451 58.6356 55.442 58.4497V59.7152Z" fill="white"/>
    <path d="M61.2341 59.9775C58.554 59.9775 57.6631 58.6256 57.6631 56.7274C57.6631 54.5697 59.4474 53.4575 62.3003 53.4575C63.0629 53.4575 64.24 53.5663 64.8274 53.806V53.4575C64.8274 50.9489 63.5638 50.1629 62.2361 50.1629C60.9212 50.1698 59.6223 50.4527 58.4232 50.9934V49.8144C59.6148 49.2461 60.9164 48.9466 62.2361 48.937C64.2598 48.937 66.091 49.985 66.091 53.4526V58.0324C66.091 59.3176 67.6803 58.7294 68.1591 58.4254V59.5796C67.7017 59.8215 67.1953 59.9559 66.6783 59.9726C65.2618 59.9726 65.0002 59.2533 64.8916 58.6651C64.087 59.4338 62.2139 59.9775 61.2341 59.9775ZM64.8274 54.9182C63.9919 54.6826 63.1261 54.5727 62.2583 54.592C60.1655 54.592 58.9242 55.3977 58.9242 56.7274C58.9242 57.8841 59.514 58.7046 61.2341 58.7046C62.2213 58.7046 63.8477 58.3784 64.8274 57.6147V54.9182Z" fill="white"/>
    <path d="M69.6807 50.4202V49.1992H78.5454V50.3114L71.0529 58.5343H78.5454V59.7553H69.2686V58.6258L76.7142 50.4202H69.6807Z" fill="white"/>
    <path d="M82.2025 45.0166C82.8121 45.0166 83.007 45.3206 83.007 45.7803C83.007 46.1931 82.8121 46.5416 82.2025 46.5416C81.5929 46.5416 81.3955 46.1931 81.3955 45.7803C81.3955 45.3206 81.5929 45.0166 82.2025 45.0166ZM81.5707 59.7595V49.2034H82.854V59.7595H81.5707Z" fill="white"/>
    <path d="M86.0137 54.4807C86.0137 50.6646 88.4298 48.9419 91.3912 48.9419C94.3527 48.9419 96.7416 50.667 96.7416 54.4807C96.7416 58.2943 94.3231 59.9774 91.3838 59.9774C88.4446 59.9774 86.0137 58.2992 86.0137 54.4807ZM95.4855 54.4807C95.4855 51.537 93.6346 50.1208 91.3912 50.1208C89.1479 50.1208 87.2748 51.537 87.2748 54.4807C87.2748 57.4243 89.1257 58.801 91.3912 58.801C93.6568 58.801 95.4855 57.4268 95.4855 54.4807Z" fill="white"/>
    <path d="M99.9053 59.7596V49.2035H101.016L101.147 50.207C101.909 49.51 103.499 48.9712 104.478 48.9712C106.875 48.9712 108.659 50.0389 108.659 53.2668V59.767H107.398V53.2668C107.398 50.9781 106.112 50.2144 104.478 50.2144C103.607 50.2144 102.366 50.6074 101.169 51.3266V59.767L99.9053 59.7596Z" fill="white"/>
    <path d="M112.992 55.0046C113.167 57.6219 114.779 58.7564 116.802 58.7564C118.08 58.7454 119.352 58.5844 120.593 58.2769V59.4756C119.351 59.7751 118.08 59.9408 116.802 59.9699C113.927 59.9699 111.706 58.3115 111.706 54.3867C111.706 50.8968 114.058 48.9492 116.607 48.9492C119.633 48.9492 121.484 51.2404 121.484 54.9897L112.992 55.0046ZM112.992 53.9591H120.186C119.939 51.7124 118.619 50.2295 116.615 50.2295C114.821 50.2295 113.167 51.6037 112.992 53.9591Z" fill="white"/>
    <path d="M130.456 55.0046C130.631 57.6219 132.243 58.7564 134.269 58.7564C135.546 58.7456 136.818 58.5846 138.057 58.2769V59.4756C136.816 59.7753 135.546 59.941 134.269 59.9699C131.394 59.9699 129.173 58.3115 129.173 54.3867C129.173 50.8968 131.525 48.9492 134.072 48.9492C137.1 48.9492 138.951 51.2404 138.951 54.9897L130.456 55.0046ZM130.456 53.9591H137.643C137.396 51.7124 136.076 50.2295 134.072 50.2295C132.28 50.2295 130.631 51.6037 130.456 53.9591Z" fill="white"/>
    <path d="M145.375 57.8838L148.83 49.2036H150.2L145.888 59.7597H144.822L140.511 49.2036H141.905L145.375 57.8838Z" fill="white"/>
    <path d="M151.926 54.4807C151.926 50.6646 154.344 48.9419 157.306 48.9419C160.267 48.9419 162.664 50.672 162.664 54.4807C162.664 58.2894 160.245 59.9774 157.306 59.9774C154.367 59.9774 151.926 58.2992 151.926 54.4807ZM161.4 54.4807C161.4 51.537 159.549 50.1208 157.306 50.1208C155.062 50.1208 153.189 51.537 153.189 54.4807C153.189 57.4243 155.04 58.801 157.306 58.801C159.571 58.801 161.4 57.4268 161.4 54.4807Z" fill="white"/>
    <path d="M169.609 59.8463C166.909 59.8463 165.799 59.258 165.799 56.9026V44.2754H167.062V56.9026C167.062 58.2768 167.845 58.6031 169.609 58.6031V59.8463Z" fill="white"/>
    <path d="M176.033 59.9994C173.637 59.9994 171.838 58.9317 171.838 55.7038V49.2036H173.101V55.7038C173.101 57.9925 174.385 58.7562 176.041 58.7562C176.89 58.7562 178.175 58.3632 179.328 57.644V49.2036H180.592V58.037C180.592 59.3222 182.181 58.734 182.66 58.43V59.5842C182.202 59.8264 181.696 59.9608 181.179 59.9772C179.765 59.9772 179.503 59.2579 179.395 58.6697C178.691 59.4754 176.991 59.9994 176.033 59.9994Z" fill="white"/>
    <path d="M183.74 50.2514V49.2035H185.658V46.4848L186.921 46.0918V49.2109H189.446V50.2589H186.921V56.8233C186.921 57.7823 187.008 58.7413 189.49 58.7413V59.898C186.791 59.898 185.658 59.2875 185.658 56.9321V50.2589L183.74 50.2514Z" fill="white"/>
    <path d="M194.935 59.9775C192.255 59.9775 191.361 58.6256 191.361 56.7274C191.361 54.5697 193.148 53.4575 196.001 53.4575C196.764 53.4575 197.938 53.5663 198.528 53.806V53.4575C198.528 50.9489 197.265 50.1629 195.937 50.1629C194.622 50.1698 193.323 50.4527 192.124 50.9934V49.8144C193.315 49.2461 194.617 48.9466 195.937 48.937C197.96 48.937 199.789 49.985 199.789 53.4526V58.0324C199.789 59.3176 201.381 58.7294 201.86 58.4254V59.5796C201.402 59.8212 200.896 59.9556 200.379 59.9726C198.962 59.9726 198.701 59.2533 198.592 58.6651C197.788 59.4338 195.915 59.9775 194.935 59.9775ZM198.528 54.9182C197.69 54.682 196.822 54.5721 195.952 54.592C193.861 54.592 192.62 55.3977 192.62 56.7274C192.62 57.8841 193.207 58.7046 194.93 58.7046C195.917 58.7046 197.543 58.3784 198.523 57.6147L198.528 54.9182Z" fill="white"/>
    <path d="M0 19.9378V1.54932H7.17913V19.0974C7.17913 27.392 11.6411 27.1177 13.1144 27.1177C14.7704 27.1177 19.0053 27.392 19.0053 19.0974V1.54932H26.2289V19.9378C26.2289 33.1186 16.9792 33.8082 13.1144 33.8082C9.2497 33.8082 0 33.1631 0 19.9378Z" fill="white"/>
    <path d="M40.772 24.8689C43.0721 26.206 47.9043 27.4962 51.1718 27.4962C54.116 27.4962 55.8189 26.8956 56.1866 24.6835C56.5543 22.333 53.1486 21.4112 49.422 20.3064L47.6748 19.6613C40.3105 17.4369 40.3105 11.4582 40.3105 10.6277C40.3105 5.09881 44.8663 1.04297 53.0128 1.04297C55.9571 1.04297 60.3277 2.10327 62.2601 3.30198V9.43147C58.0646 7.94853 55.3499 7.31086 52.966 7.31086C49.2394 7.31086 47.6748 8.73943 47.6279 10.5363C47.638 10.8715 47.7161 11.2011 47.8574 11.5051C48.1807 12.0563 48.6866 12.6569 49.928 13.0251L51.579 13.6232C58.6199 15.8353 63.8667 17.8645 63.499 24.5921C62.8993 31.7349 57.9758 33.8085 51.1595 33.8085C47.4773 33.8085 43.3806 32.6098 40.7597 31.2282L40.772 24.8689Z" fill="white"/>
    <path d="M123.373 24.5917C123.373 25.8819 123.788 27.0806 125.811 27.0806H137.41V33.3015H124.108C118.635 33.1631 116.288 31.4577 116.149 26.2502V1.54932H123.373V24.5917Z" fill="white"/>
    <path d="M197.831 26.7569C200.777 26.7569 201.421 28.3238 201.421 30.306C201.421 32.2882 200.592 33.8082 197.831 33.8082C195.025 33.8082 194.195 32.2882 194.195 30.306C194.195 28.3238 194.886 26.7569 197.831 26.7569ZM201.33 1.54688V9.61407L200.548 24.4089H195.163L194.38 9.61407V1.54935L201.33 1.54688Z" fill="white"/>
    <path d="M92.1741 1.54932H85.8217C80.3923 13.3461 77.5394 22.6095 74.457 33.3015H81.5498C83.5241 24.7277 87.5443 12.3303 88.9979 9.32734C90.4787 12.3155 94.336 24.6659 96.3449 33.2373L96.3597 33.2916H103.539C100.456 22.6095 97.6035 13.3461 92.1741 1.54932Z" fill="white"/>
    <path d="M181.803 15.4448C181.766 15.1206 181.621 14.8182 181.393 14.5857C181.164 14.3532 180.865 14.2041 180.542 14.162L179.231 13.9865C178.96 13.9515 178.704 13.8399 178.494 13.6648C178.284 13.4898 178.128 13.2585 178.044 12.9979C177.818 12.3051 177.539 11.6308 177.21 10.9811C177.086 10.7372 177.033 10.463 177.059 10.1904C177.084 9.91786 177.186 9.65808 177.353 9.44132L178.155 8.40326C178.355 8.14736 178.463 7.832 178.463 7.50732C178.463 7.18264 178.355 6.86728 178.155 6.61138C177.327 5.56338 176.382 4.6146 175.337 3.78391C175.081 3.58489 174.766 3.47686 174.442 3.47686C174.118 3.47686 173.803 3.58489 173.547 3.78391L172.506 4.56986C172.29 4.73605 172.031 4.83767 171.759 4.86302C171.488 4.88838 171.214 4.83646 170.971 4.71321C170.319 4.3813 169.643 4.10116 168.947 3.87535C168.687 3.78994 168.456 3.63252 168.282 3.42127C168.107 3.21003 167.995 2.95358 167.96 2.68159L167.792 1.3766C167.75 1.05075 167.6 0.748615 167.365 0.518999C167.13 0.289382 166.825 0.145697 166.499 0.111158C165.181 -0.0370526 163.851 -0.0370526 162.533 0.111158C162.21 0.148598 161.908 0.293212 161.676 0.522032C161.444 0.750853 161.295 1.05076 161.252 1.37413L161.08 2.68406C161.044 2.95561 160.932 3.21153 160.758 3.4223C160.583 3.63307 160.352 3.79013 160.092 3.87535C159.4 4.09945 158.727 4.37881 158.079 4.71074C157.835 4.83478 157.561 4.88715 157.289 4.86178C157.017 4.8364 156.758 4.73433 156.541 4.56739L155.495 3.76661C155.239 3.56819 154.925 3.46052 154.601 3.46052C154.278 3.46052 153.964 3.56819 153.708 3.76661C152.663 4.5976 151.716 5.54633 150.887 6.59408C150.688 6.85016 150.58 7.16545 150.58 7.49002C150.58 7.81459 150.688 8.12988 150.887 8.38596L151.694 9.44379C151.86 9.66107 151.961 9.92075 151.987 10.1931C152.012 10.4654 151.96 10.7394 151.837 10.9836C151.505 11.6346 151.224 12.3106 150.996 13.0053C150.911 13.2653 150.754 13.496 150.544 13.6709C150.334 13.8457 150.079 13.9577 149.809 13.9939L148.493 14.1694C148.17 14.2115 147.871 14.3606 147.642 14.5931C147.413 14.8256 147.269 15.128 147.232 15.4522C147.084 16.7728 147.084 18.1058 147.232 19.4265C147.27 19.7503 147.415 20.0522 147.643 20.2846C147.871 20.5169 148.171 20.6663 148.493 20.7092L149.809 20.8847C150.08 20.9206 150.335 21.0325 150.545 21.2074C150.755 21.3824 150.911 21.6132 150.996 21.8733C151.223 22.5645 151.502 23.2371 151.832 23.8852C151.958 24.1291 152.011 24.4036 151.986 24.6768C151.961 24.9499 151.859 25.2103 151.692 25.4274L150.887 26.4828C150.688 26.7389 150.58 27.0541 150.58 27.3787C150.58 27.7033 150.688 28.0186 150.887 28.2747C151.716 29.3198 152.663 30.266 153.708 31.0947C153.963 31.2935 154.278 31.4015 154.601 31.4015C154.925 31.4015 155.239 31.2935 155.495 31.0947L156.541 30.2939C156.758 30.1274 157.017 30.0258 157.29 30.0008C157.562 29.9759 157.835 30.0287 158.079 30.1531C158.727 30.4842 159.4 30.7627 160.092 30.986C160.352 31.0712 160.583 31.2283 160.758 31.439C160.932 31.6498 161.044 31.9057 161.08 32.1773L161.252 33.4872C161.295 33.8107 161.444 34.1107 161.676 34.3399C161.908 34.569 162.21 34.7143 162.533 34.7526C163.851 34.8976 165.181 34.8976 166.499 34.7526C166.823 34.715 167.126 34.5696 167.358 34.3398C167.59 34.11 167.739 33.809 167.78 33.4847L167.948 32.1797C167.984 31.9079 168.095 31.6518 168.27 31.4406C168.444 31.2295 168.675 31.0719 168.935 30.986C169.63 30.7602 170.307 30.48 170.959 30.1481C171.202 30.0249 171.475 29.9729 171.747 29.9983C172.018 30.0237 172.277 30.1253 172.494 30.2915L173.543 31.0947C173.797 31.2937 174.111 31.4018 174.435 31.4018C174.758 31.4018 175.072 31.2937 175.327 31.0947C176.371 30.2672 177.316 29.3209 178.143 28.2747C178.341 28.0186 178.448 27.7039 178.448 27.38C178.448 27.056 178.341 26.7413 178.143 26.4852L177.341 25.4373C177.175 25.22 177.073 24.9604 177.048 24.688C177.023 24.4157 177.075 24.1417 177.198 23.8975C177.529 23.2483 177.809 22.574 178.034 21.8807C178.119 21.6206 178.275 21.3898 178.485 21.2148C178.695 21.0399 178.95 20.928 179.221 20.8921L180.532 20.7191C180.854 20.6762 181.154 20.5268 181.382 20.2945C181.61 20.0621 181.755 19.7602 181.793 19.4363C181.941 18.1157 181.941 16.7827 181.793 15.4621L181.803 15.4448ZM164.512 26.2727C162.765 26.2732 161.056 25.7546 159.603 24.7825C158.15 23.8105 157.017 22.4286 156.348 20.8117C155.679 19.1948 155.504 17.4155 155.845 15.6989C156.185 13.9823 157.027 12.4054 158.263 11.1679C159.498 9.93026 161.073 9.0875 162.787 8.74617C164.501 8.40484 166.278 8.58027 167.892 9.25028C169.507 9.92028 170.887 11.0548 171.857 12.5102C172.828 13.9657 173.346 15.6767 173.345 17.427C173.345 19.773 172.415 22.0229 170.758 23.6818C169.102 25.3407 166.855 26.2727 164.512 26.2727Z" fill="#418FDE"/>
</svg>
