<svg width="185" height="32" viewBox="0 0 185 32" fill="none" xmlns="http://www.w3.org/2000/svg">
    <path d="M0 18.3016V1.42249H6.58987V17.5303C6.58987 25.144 10.6856 24.8922 12.038 24.8922C13.5581 24.8922 17.4454 25.144 17.4454 17.5303V1.42249H24.076V18.3016C24.076 30.4006 15.5855 31.0336 12.038 31.0336C8.49049 31.0336 0 30.4415 0 18.3016Z" fill="#041E42"/>
    <path d="M37.4256 22.8277C39.5369 24.0551 43.9724 25.2394 46.9717 25.2394C49.6743 25.2394 51.2373 24.6881 51.5749 22.6576C51.9124 20.5 48.7862 19.6538 45.3656 18.6397L43.7617 18.0476C37.002 16.0057 37.002 10.5177 37.002 9.75546C37.002 4.68037 41.1838 0.957428 48.6617 0.957428C51.3642 0.957428 55.3761 1.9307 57.1499 3.03102V8.65741C53.2988 7.29618 50.8069 6.71086 48.6186 6.71086C45.198 6.71086 43.7617 8.02217 43.7187 9.67152C43.7279 9.9792 43.7996 10.2818 43.9294 10.5608C44.2261 11.0668 44.6905 11.6181 45.83 11.9561L47.3455 12.5051C53.8085 14.5356 58.6246 16.3982 58.2871 22.5736C57.7366 29.1302 53.2173 31.0336 46.9604 31.0336C43.5805 31.0336 39.82 29.9333 37.4142 28.6651L37.4256 22.8277Z" fill="#041E42"/>
    <path d="M113.247 22.5736C113.247 23.7579 113.627 24.8582 115.485 24.8582H126.132V30.5685H113.922C108.897 30.4415 106.743 28.8761 106.616 24.0959V1.42249H113.247V22.5736Z" fill="#041E42"/>
    <path d="M181.592 24.5605C184.297 24.5605 184.888 25.9989 184.888 27.8184C184.888 29.6379 184.127 31.0331 181.592 31.0331C179.016 31.0331 178.255 29.6379 178.255 27.8184C178.255 25.9989 178.889 24.5605 181.592 24.5605ZM184.804 1.41974V8.82479L184.086 22.4052H179.143L178.425 8.82479V1.42201L184.804 1.41974Z" fill="#041E42"/>
    <path d="M84.6086 1.42249H78.7776C73.7938 12.251 71.1751 20.7541 68.3457 30.5685H74.8563C76.6686 22.6984 80.3588 11.3186 81.6931 8.56209C83.0523 11.305 86.593 22.6417 88.437 30.5095L88.4506 30.5594H95.0405C92.2111 20.7541 89.5923 12.251 84.6086 1.42249Z" fill="#041E42"/>
    <path d="M166.881 14.1771C166.847 13.8795 166.714 13.6019 166.505 13.3885C166.295 13.1751 166.02 13.0382 165.723 12.9996L164.52 12.8385C164.271 12.8063 164.037 12.7039 163.844 12.5432C163.651 12.3826 163.508 12.1702 163.431 11.9311C163.223 11.2951 162.967 10.6762 162.665 10.0798C162.551 9.85591 162.503 9.60423 162.526 9.35402C162.549 9.10381 162.643 8.86535 162.796 8.66639L163.533 7.71353C163.716 7.47863 163.815 7.18916 163.815 6.89113C163.815 6.5931 163.716 6.30362 163.533 6.06872C162.773 5.10674 161.905 4.23584 160.946 3.47333C160.711 3.29065 160.422 3.19149 160.124 3.19149C159.827 3.19149 159.538 3.29065 159.303 3.47333L158.347 4.19477C158.149 4.34732 157.911 4.44059 157.662 4.46387C157.412 4.48715 157.162 4.43948 156.938 4.32636C156.34 4.02169 155.719 3.76454 155.081 3.55727C154.842 3.47887 154.63 3.33436 154.47 3.14046C154.309 2.94655 154.207 2.71116 154.174 2.46148L154.02 1.26361C153.982 0.964509 153.844 0.68717 153.628 0.4764C153.413 0.265629 153.133 0.133738 152.833 0.102034C151.624 -0.0340114 150.403 -0.0340114 149.193 0.102034C148.896 0.136401 148.619 0.269145 148.406 0.479184C148.193 0.689223 148.056 0.964516 148.017 1.26134L147.859 2.46375C147.826 2.71302 147.723 2.94793 147.563 3.1414C147.403 3.33488 147.191 3.47904 146.953 3.55727C146.317 3.76297 145.699 4.0194 145.104 4.32409C144.88 4.43795 144.629 4.48601 144.379 4.46273C144.13 4.43944 143.892 4.34574 143.693 4.1925L142.732 3.45745C142.498 3.27532 142.209 3.17649 141.912 3.17649C141.615 3.17649 141.327 3.27532 141.092 3.45745C140.133 4.22023 139.264 5.09109 138.503 6.05284C138.32 6.2879 138.221 6.57732 138.221 6.87525C138.221 7.17317 138.32 7.46259 138.503 7.69765L139.244 8.66866C139.396 8.8681 139.489 9.10646 139.512 9.35644C139.535 9.60642 139.488 9.85789 139.375 10.0821C139.07 10.6797 138.812 11.3001 138.603 11.9379C138.525 12.1765 138.381 12.3882 138.188 12.5488C137.995 12.7093 137.761 12.8121 137.513 12.8453L136.305 13.0064C136.009 13.045 135.734 13.1819 135.524 13.3953C135.314 13.6087 135.182 13.8863 135.148 14.1839C135.012 15.3961 135.012 16.6197 135.148 17.8319C135.183 18.1292 135.315 18.4064 135.525 18.6196C135.735 18.8329 136.009 18.97 136.305 19.0094L137.513 19.1705C137.762 19.2035 137.996 19.3062 138.189 19.4667C138.381 19.6273 138.525 19.8392 138.603 20.078C138.811 20.7124 139.067 21.3298 139.37 21.9247C139.485 22.1486 139.534 22.4006 139.512 22.6513C139.489 22.9021 139.395 23.1411 139.241 23.3404L138.503 24.3091C138.32 24.5442 138.221 24.8336 138.221 25.1315C138.221 25.4294 138.32 25.7188 138.503 25.9539C139.264 26.9133 140.133 27.7818 141.092 28.5425C141.327 28.725 141.615 28.8241 141.912 28.8241C142.209 28.8241 142.498 28.725 142.732 28.5425L143.693 27.8074C143.892 27.6546 144.13 27.5613 144.38 27.5384C144.63 27.5155 144.881 27.5639 145.104 27.6781C145.699 27.9821 146.317 28.2377 146.953 28.4427C147.191 28.5209 147.403 28.6651 147.563 28.8585C147.723 29.052 147.826 29.2869 147.859 29.5362L148.017 30.7386C148.057 31.0355 148.193 31.3109 148.406 31.5213C148.619 31.7316 148.896 31.8649 149.193 31.9002C150.403 32.0333 151.624 32.0333 152.833 31.9002C153.131 31.8656 153.409 31.7322 153.622 31.5212C153.835 31.3103 153.971 31.034 154.009 30.7363L154.163 29.5385C154.196 29.289 154.299 29.0538 154.459 28.86C154.619 28.6662 154.831 28.5215 155.069 28.4427C155.708 28.2354 156.329 27.9782 156.927 27.6736C157.15 27.5605 157.401 27.5128 157.65 27.5361C157.9 27.5593 158.137 27.6526 158.336 27.8052L159.299 28.5425C159.533 28.7252 159.821 28.8244 160.118 28.8244C160.414 28.8244 160.703 28.7252 160.937 28.5425C161.895 27.7829 162.763 26.9142 163.521 25.9539C163.703 25.7189 163.802 25.43 163.802 25.1326C163.802 24.8353 163.703 24.5464 163.521 24.3114L162.785 23.3494C162.633 23.15 162.54 22.9116 162.516 22.6616C162.493 22.4117 162.541 22.1602 162.654 21.936C162.958 21.3401 163.215 20.7211 163.422 20.0848C163.499 19.846 163.643 19.6341 163.836 19.4735C164.028 19.313 164.263 19.2103 164.511 19.1773L165.714 19.0185C166.01 18.9791 166.285 18.842 166.495 18.6287C166.704 18.4154 166.837 18.1383 166.872 17.841C167.008 16.6288 167.008 15.4052 166.872 14.1929L166.881 14.1771ZM151.01 24.1163C149.406 24.1167 147.837 23.6407 146.503 22.7484C145.169 21.8561 144.129 20.5877 143.515 19.1035C142.901 17.6193 142.741 15.9861 143.053 14.4103C143.366 12.8346 144.139 11.3872 145.273 10.2512C146.407 9.11519 147.853 8.34161 149.426 8.02829C150.999 7.71498 152.63 7.87601 154.112 8.49102C155.594 9.10604 156.861 10.1474 157.752 11.4834C158.643 12.8194 159.118 14.39 159.117 15.9966C159.117 18.15 158.263 20.2153 156.743 21.7381C155.222 23.2608 153.16 24.1163 151.01 24.1163Z" fill="#418FDE"/>
</svg>