<svg xmlns="http://www.w3.org/2000/svg" viewBox="0 0 345.45 345.44"><defs><style>.cls-1{fill:#418fde;}</style></defs><g id="Livello_2" data-name="Livello 2"><g id="Livello_1-2" data-name="Livello 1"><path id="gear_4" class="cls-1" d="M159.52,345.44c-.44,0-.89,0-1.34-.06a178,178,0,0,1-38.69-7.78,15.44,15.44,0,0,1-10.67-15.76l.87-13a13.39,13.39,0,0,0-6.75-12.52,138.69,138.69,0,0,1-18-12.11,13.4,13.4,0,0,0-14.14-1.51L59,288.38a15.38,15.38,0,0,1-18.51-3.81,173.15,173.15,0,0,1-22-33A15.39,15.39,0,0,1,22.13,233L32,224.31a13.39,13.39,0,0,0,4.07-13.65,140.12,140.12,0,0,1-4.24-21.28,13.44,13.44,0,0,0-8.93-11l-12.43-4.26A15.42,15.42,0,0,1,.06,158.2a175.07,175.07,0,0,1,2.82-19.63,177.6,177.6,0,0,1,5-19.1A15.43,15.43,0,0,1,23.6,108.8l13.11.88A13.42,13.42,0,0,0,49.19,103,144.15,144.15,0,0,1,61.38,84.91a13.4,13.4,0,0,0,1.51-14.15L57.11,59A15.38,15.38,0,0,1,61,40.4,173,173,0,0,1,94,18.45a15.39,15.39,0,0,1,18.55,3.64l8.59,9.81A13.42,13.42,0,0,0,134.78,36a137.41,137.41,0,0,1,21.34-4.19,13.41,13.41,0,0,0,11.06-8.94l4.24-12.37A15.44,15.44,0,0,1,187.35.06a174.58,174.58,0,0,1,19.53,2.8,177.39,177.39,0,0,1,19.16,5,15.44,15.44,0,0,1,10.67,15.81l-.91,13a13.39,13.39,0,0,0,6.75,12.56A140,140,0,0,1,260.67,61.3a13.41,13.41,0,0,0,14.12,1.5l11.73-5.73a15.39,15.39,0,0,1,18.53,3.82,174,174,0,0,1,22,33.09,15.39,15.39,0,0,1-3.66,18.61l-9.83,8.57a13.38,13.38,0,0,0-4.09,13.63,140.24,140.24,0,0,1,4.2,21.32,13.38,13.38,0,0,0,8.93,11L335,171.4a15.45,15.45,0,0,1,10.42,15.93h0a178.51,178.51,0,0,1-7.79,38.73,15.43,15.43,0,0,1-15.76,10.66l-13-.87a13.39,13.39,0,0,0-12.51,6.74,138.54,138.54,0,0,1-12.13,18,13.44,13.44,0,0,0-1.5,14.14l5.73,11.73A15.39,15.39,0,0,1,284.57,305a171.51,171.51,0,0,1-33,22A15.39,15.39,0,0,1,233,323.35l-8.61-9.82a13.4,13.4,0,0,0-13.6-4.08,140.15,140.15,0,0,1-21.41,4.19,13.41,13.41,0,0,0-11.08,9l-4.17,12.31A15.44,15.44,0,0,1,159.52,345.44ZM76.61,279.31a15.34,15.34,0,0,1,9.52,3.29,135.35,135.35,0,0,0,17.79,11.93,15.41,15.41,0,0,1,7.77,14.4L110.82,322a13.43,13.43,0,0,0,9.28,13.72A173.52,173.52,0,0,0,139,340.6a175.64,175.64,0,0,0,19.38,2.79,13.43,13.43,0,0,0,13.87-9.11l4.18-12.3a15.4,15.4,0,0,1,12.74-10.32,137.34,137.34,0,0,0,21.1-4.14,15.41,15.41,0,0,1,15.64,4.69L234.5,322a13.39,13.39,0,0,0,16.14,3.18,169.23,169.23,0,0,0,32.64-21.71,13.38,13.38,0,0,0,3.3-16.11l-5.73-11.74a15.4,15.4,0,0,1,1.74-16.25,137.21,137.21,0,0,0,12-17.79,15.39,15.39,0,0,1,14.39-7.75l13,.86a13.42,13.42,0,0,0,13.73-9.28,176.84,176.84,0,0,0,7.7-38.29,13.45,13.45,0,0,0-9.07-13.86L322,169.05a15.42,15.42,0,0,1-10.27-12.71,137.4,137.4,0,0,0-4.14-21,15.41,15.41,0,0,1,4.71-15.68l9.82-8.57a13.39,13.39,0,0,0,3.2-16.19,172.55,172.55,0,0,0-21.74-32.71,13.4,13.4,0,0,0-16.13-3.31L275.67,64.6a15.42,15.42,0,0,1-16.24-1.73,137.66,137.66,0,0,0-17.86-12,15.41,15.41,0,0,1-7.76-14.45l.9-13a13.42,13.42,0,0,0-9.28-13.76,175.36,175.36,0,0,0-38.25-7.69,13.46,13.46,0,0,0-13.87,9.07l-4.24,12.37a15.39,15.39,0,0,1-12.72,10.27,135.77,135.77,0,0,0-21,4.13,15.39,15.39,0,0,1-15.66-4.68l-8.6-9.8a13.38,13.38,0,0,0-16.14-3.18A171.75,171.75,0,0,0,62.24,41.92a13.39,13.39,0,0,0-3.33,16.15l5.78,11.81A15.43,15.43,0,0,1,63,86.15a142.59,142.59,0,0,0-12,17.82,15.39,15.39,0,0,1-14.36,7.7l-13.1-.87a13.42,13.42,0,0,0-13.72,9.28A171.87,171.87,0,0,0,4.84,139a176.16,176.16,0,0,0-2.79,19.41,13.43,13.43,0,0,0,9.07,13.86l12.42,4.26a15.43,15.43,0,0,1,10.27,12.65,139.75,139.75,0,0,0,4.19,21,15.41,15.41,0,0,1-4.68,15.7l-9.87,8.65a13.38,13.38,0,0,0-3.17,16.18A171.65,171.65,0,0,0,42,283.28a13.39,13.39,0,0,0,16.12,3.3l11.71-5.72A15.36,15.36,0,0,1,76.61,279.31Z"/></g></g></svg>