<svg xmlns="http://www.w3.org/2000/svg" viewBox="0 0 530.71 530.71">
    <g>
        <g>
            <path fill="#418fde" d="M266,530.71c-6.13,0-12.33-.21-18.54-.63a270.24,270.24,0,0,1-30-3.7,24.06,24.06,0,0,1-19.69-22.19l-1.29-19.95A20,20,0,0,0,184.09,467a211.42,211.42,0,0,1-29.86-14.78,20,20,0,0,0-21.23.52l-16.61,11A24,24,0,0,1,87,461.65a265.38,265.38,0,0,1-40-45.73,24,24,0,0,1,1.82-29.49L62,371.35a20,20,0,0,0,3.36-21,215.55,215.55,0,0,1-10.71-31.47,20,20,0,0,0-15.37-14.53l-19.68-4A24.08,24.08,0,0,1,.26,277.86a273.19,273.19,0,0,1,.37-30.37,267.6,267.6,0,0,1,3.71-30,24.06,24.06,0,0,1,22.19-19.7l20-1.3a20,20,0,0,0,17.18-12.34,218.08,218.08,0,0,1,14.9-29.9A20,20,0,0,0,78.11,133L67,116.28a24,24,0,0,1,2.16-29.47A265.16,265.16,0,0,1,115,46.87a24,24,0,0,1,29.43,1.85l15,13.14a20,20,0,0,0,21,3.37A210.68,210.68,0,0,1,211.92,54.6a20,20,0,0,0,14.63-15.4l4-19.59A24.06,24.06,0,0,1,253,.27a272.61,272.61,0,0,1,60.31,4.06A24,24,0,0,1,333,26.6l1.22,19.82a20,20,0,0,0,12.44,17.29,214.87,214.87,0,0,1,30,14.81,20,20,0,0,0,21.2-.54l16.64-11a24,24,0,0,1,29.43,2.14,266.29,266.29,0,0,1,40,45.85,24,24,0,0,1-1.86,29.5l-13.18,14.95a20,20,0,0,0-3.41,21,214.59,214.59,0,0,1,10.65,31.53,20,20,0,0,0,15.38,14.62l19.6,4A24.07,24.07,0,0,1,530.45,253h0a267.94,267.94,0,0,1-.36,30.22,270.89,270.89,0,0,1-3.72,30.14,24,24,0,0,1-22.19,19.7l-19.95,1.29A20,20,0,0,0,467,346.77a213,213,0,0,1-14.81,29.85,20,20,0,0,0,.53,21.22l11,16.64a24,24,0,0,1-2.12,29.41,262.57,262.57,0,0,1-45.74,40A24,24,0,0,1,386.48,482l-15-13.17a20,20,0,0,0-20.93-3.39,215.64,215.64,0,0,1-31.68,10.66,20,20,0,0,0-14.64,15.45L300.33,511a24,24,0,0,1-22.51,19.41C273.93,530.63,270,530.71,266,530.71Zm-122-85.26a23.78,23.78,0,0,1,12.23,3.35,208.81,208.81,0,0,0,29.29,14.51A24,24,0,0,1,200.51,484l1.29,19.95a20.07,20.07,0,0,0,16.42,18.51,264.24,264.24,0,0,0,29.54,3.65,269.24,269.24,0,0,0,29.88.37,20.07,20.07,0,0,0,18.77-16.2l3.87-19.49a24,24,0,0,1,17.6-18.55A211.54,211.54,0,0,0,349,461.76a24,24,0,0,1,25.13,4.06l15,13.17a20,20,0,0,0,24.52,1.56,258.55,258.55,0,0,0,45.05-39.35,20,20,0,0,0,1.74-24.51l-11-16.64a24,24,0,0,1-.63-25.48,209.34,209.34,0,0,0,14.52-29.29A24,24,0,0,1,484,330.36l19.95-1.29a20.08,20.08,0,0,0,18.52-16.42A268,268,0,0,0,526.1,283a264.66,264.66,0,0,0,.35-29.77h0a20.07,20.07,0,0,0-16.14-18.76l-19.6-4a24,24,0,0,1-18.47-17.56A209.33,209.33,0,0,0,461.79,182a24,24,0,0,1,4.09-25.21l13.18-14.95a20,20,0,0,0,1.57-24.59A262.82,262.82,0,0,0,441.22,72a20,20,0,0,0-24.53-1.75l-16.64,11A24,24,0,0,1,374.6,82a210.2,210.2,0,0,0-29.4-14.54,24,24,0,0,1-14.95-20.75L329,26.84A20.05,20.05,0,0,0,312.6,8.27a268.52,268.52,0,0,0-59.41-4A20.08,20.08,0,0,0,234.43,20.4l-4,19.59a24,24,0,0,1-17.58,18.48,208,208,0,0,0-31,10.44,24.05,24.05,0,0,1-25.18-4l-15-13.14a20,20,0,0,0-24.52-1.57A261.75,261.75,0,0,0,72.11,89.5a20,20,0,0,0-1.78,24.56l11.12,16.75a24.06,24.06,0,0,1,.63,25.51,214,214,0,0,0-14.62,29.35A24.07,24.07,0,0,1,46.82,200.5l-20,1.29A20.08,20.08,0,0,0,8.27,218.21a264.71,264.71,0,0,0-3.65,29.55,267.52,267.52,0,0,0-.36,29.92A20.08,20.08,0,0,0,20.4,296.44l19.68,4a24,24,0,0,1,18.45,17.46,212,212,0,0,0,10.52,30.89A24,24,0,0,1,65,374L51.77,389.07a20,20,0,0,0-1.53,24.58,261.36,261.36,0,0,0,39.43,45,20,20,0,0,0,24.51,1.75l16.61-11A24,24,0,0,1,144.05,445.45Z"/>
        </g>
    </g>
</svg>