<svg xmlns="http://www.w3.org/2000/svg" viewBox="0 0 427.64 427.64">
<defs><style>.cls-1{fill:#418fde;}</style></defs>
    <g>
        <g>
            <path fill="#418fde" d="M211.06,427.64h-.32a219.35,219.35,0,0,1-48.31-6.26,19.28,19.28,0,0,1-14.66-18.72l-.05-16.12A16.24,16.24,0,0,0,138.5,372a170.69,170.69,0,0,1-23.28-13.36A16.26,16.26,0,0,0,98,358l-13.91,8a19.23,19.23,0,0,1-23.42-3.14,213.48,213.48,0,0,1-29.94-38.76,19.22,19.22,0,0,1,2.91-23.5L45,289.13a16.26,16.26,0,0,0,3.77-16.86,174.16,174.16,0,0,1-7.06-25.83A16.24,16.24,0,0,0,30,233.89l-15.64-4.17A19.3,19.3,0,0,1,0,210.76a220.7,220.7,0,0,1,6.26-48.34A19.29,19.29,0,0,1,25,147.75l16.19-.05a16.24,16.24,0,0,0,14.54-9.15,177.47,177.47,0,0,1,13.46-23.3A16.26,16.26,0,0,0,69.8,98L61.68,84a19.22,19.22,0,0,1,3.18-23.47,214.07,214.07,0,0,1,38.82-29.86,19.25,19.25,0,0,1,23.45,2.93L138.54,44.9a16.26,16.26,0,0,0,16.82,3.78,170.84,170.84,0,0,1,25.91-7A16.23,16.23,0,0,0,193.9,29.94l4.15-15.57A19.3,19.3,0,0,1,217,0a220.19,220.19,0,0,1,48.31,6.25A19.29,19.29,0,0,1,280,25v16a16.23,16.23,0,0,0,9.22,14.62,173.52,173.52,0,0,1,23.36,13.4,16.25,16.25,0,0,0,17.2.62l13.94-8a19.23,19.23,0,0,1,23.44,3.15,215,215,0,0,1,29.91,38.86,19.21,19.21,0,0,1-2.94,23.51l-11.35,11.38a16.23,16.23,0,0,0-3.8,16.84,172.7,172.7,0,0,1,7,25.89,16.22,16.22,0,0,0,11.74,12.61L413.27,198a19.29,19.29,0,0,1,14.37,19,215.37,215.37,0,0,1-1.78,24.28,219.57,219.57,0,0,1-4.48,24.07A19.29,19.29,0,0,1,402.66,280l-16.12.05A16.26,16.26,0,0,0,372,289.26a171.65,171.65,0,0,1-13.38,23.27,16.26,16.26,0,0,0-.63,17.22L366,343.69a19.23,19.23,0,0,1-3.14,23.42A211.47,211.47,0,0,1,324.11,397a19.25,19.25,0,0,1-23.46-2.93l-11.43-11.34a16.26,16.26,0,0,0-16.79-3.79,173,173,0,0,1-26,7,16.22,16.22,0,0,0-12.64,11.79l-4.08,15.49A19.28,19.28,0,0,1,211.06,427.64ZM106.11,352.81a19.15,19.15,0,0,1,10.81,3.32,167.3,167.3,0,0,0,22.86,13.13,19.26,19.26,0,0,1,10.94,17.27l.05,16.12a16.29,16.29,0,0,0,12.38,15.82,216.21,216.21,0,0,0,23.61,4.4,214,214,0,0,0,24,1.77h.27a16.3,16.3,0,0,0,15.75-12.19L230.89,397a19.23,19.23,0,0,1,15-14,169.76,169.76,0,0,0,25.55-6.89,19.28,19.28,0,0,1,19.91,4.49l11.43,11.34a16.24,16.24,0,0,0,19.79,2.49A208.74,208.74,0,0,0,360.78,365a16.24,16.24,0,0,0,2.63-19.78l-8.05-13.93a19.29,19.29,0,0,1,.75-20.42A168,168,0,0,0,369.26,288a19.28,19.28,0,0,1,17.27-10.92l16.12-.05a16.29,16.29,0,0,0,15.82-12.38,215.74,215.74,0,0,0,4.42-23.73,211.84,211.84,0,0,0,1.75-23.95h0a16.29,16.29,0,0,0-12.14-16l-15.57-4.15a19.26,19.26,0,0,1-13.92-15,169,169,0,0,0-6.88-25.43,19.28,19.28,0,0,1,4.51-20L392,125a16.2,16.2,0,0,0,2.5-19.84A211.43,211.43,0,0,0,365,66.88a16.22,16.22,0,0,0-19.78-2.65l-13.94,8a19.24,19.24,0,0,1-20.39-.73,169.67,169.67,0,0,0-23-13.16A19.26,19.26,0,0,1,277,41.05V25A16.28,16.28,0,0,0,264.59,9.17,217.45,217.45,0,0,0,217,3h-.27A16.3,16.3,0,0,0,201,15.14L196.8,30.71a19.26,19.26,0,0,1-15,13.92,168.59,168.59,0,0,0-25.45,6.87,19.28,19.28,0,0,1-20-4.47L125,35.71a16.24,16.24,0,0,0-19.8-2.48A211.08,211.08,0,0,0,66.94,62.67a16.22,16.22,0,0,0-2.66,19.81l8.12,14a19.29,19.29,0,0,1-.75,20.43,172.82,172.82,0,0,0-13.23,22.91A19.26,19.26,0,0,1,41.18,150.7L25,150.75A16.29,16.29,0,0,0,9.18,163.13a214.3,214.3,0,0,0-4.41,23.61A217.44,217.44,0,0,0,3,210.81a16.29,16.29,0,0,0,12.14,16L30.79,231a19.27,19.27,0,0,1,13.9,14.88,171.87,171.87,0,0,0,6.93,25.39,19.26,19.26,0,0,1-4.46,20l-11.4,11.48a16.23,16.23,0,0,0-2.47,19.84A211.1,211.1,0,0,0,62.8,360.78a16.26,16.26,0,0,0,19.78,2.64l13.91-8A19.19,19.19,0,0,1,106.11,352.81Z"/>
        </g>
    </g>
</svg>