<svg xmlns="http://www.w3.org/2000/svg" viewBox="0 0 275.53 275.53"><defs><style>.cls-1{fill:#418fde;}</style></defs><g id="Livello_2" data-name="Livello 2"><g id="Livello_1-2" data-name="Livello 1"><path id="gear_5" class="cls-1" d="M116.67,275.53a11.8,11.8,0,0,1-2-.18,143.66,143.66,0,0,1-30.54-8.82,12.14,12.14,0,0,1-7.34-13l1.57-10.43a11.13,11.13,0,0,0-4.73-10.82,112.46,112.46,0,0,1-13.68-10.91,11.12,11.12,0,0,0-11.59-2.22l-9.8,3.82a12.11,12.11,0,0,1-14.28-4.19,139.85,139.85,0,0,1-15.47-28,12.11,12.11,0,0,1,4.06-14.35l8.51-6.3a11.12,11.12,0,0,0,4.3-11,114.22,114.22,0,0,1-2-17.35A11.14,11.14,0,0,0,17,132.05L7.31,127.8A12.16,12.16,0,0,1,.17,114.63,144.5,144.5,0,0,1,9,84.07a12.14,12.14,0,0,1,13.06-7.34L32.53,78.3a11.13,11.13,0,0,0,10.79-4.68,115.49,115.49,0,0,1,11-13.69,11.12,11.12,0,0,0,2.21-11.6l-3.86-9.88a12.12,12.12,0,0,1,4.22-14.31,139.37,139.37,0,0,1,28-15.41,12.1,12.1,0,0,1,14.31,4.06l6.26,8.46a11.13,11.13,0,0,0,11,4.3,111.25,111.25,0,0,1,17.39-1.94A11.13,11.13,0,0,0,143.58,17l4.23-9.66A12.15,12.15,0,0,1,161,.17,142.8,142.8,0,0,1,191.52,9a12.13,12.13,0,0,1,7.33,13.09l-1.59,10.36A11.12,11.12,0,0,0,202,43.29a111.93,111.93,0,0,1,13.73,11,11.13,11.13,0,0,0,11.58,2.2l9.82-3.83a12.09,12.09,0,0,1,14.28,4.2,140,140,0,0,1,15.45,28,12.11,12.11,0,0,1-4.08,14.36l-8.47,6.23a11.14,11.14,0,0,0-4.32,11,112.22,112.22,0,0,1,1.95,17.38,11.11,11.11,0,0,0,6.64,9.75l9.66,4.24A12.15,12.15,0,0,1,275.36,161h0a143.12,143.12,0,0,1-8.83,30.56,12.15,12.15,0,0,1-13,7.34L243,197.29A11.11,11.11,0,0,0,232.23,202a111.47,111.47,0,0,1-10.92,13.67,11.13,11.13,0,0,0-2.22,11.59l3.83,9.82a12.11,12.11,0,0,1-4.19,14.28,138.31,138.31,0,0,1-28,15.43,12.11,12.11,0,0,1-14.31-4.06l-6.27-8.48a11.11,11.11,0,0,0-11-4.3,113,113,0,0,1-17.45,1.94,11.13,11.13,0,0,0-9.78,6.67l-4.18,9.61A12.16,12.16,0,0,1,116.67,275.53ZM52.34,217.35a12.08,12.08,0,0,1,8.26,3.24A110.55,110.55,0,0,0,74.15,231.4a12.11,12.11,0,0,1,5.15,11.79l-1.56,10.44a11.13,11.13,0,0,0,6.73,12,143.16,143.16,0,0,0,30.32,8.76,11.13,11.13,0,0,0,12.1-6.59l4.18-9.61a12.11,12.11,0,0,1,10.66-7.27A112,112,0,0,0,159,249a12.13,12.13,0,0,1,12,4.7l6.27,8.47a11.1,11.1,0,0,0,13.13,3.73,137.06,137.06,0,0,0,27.76-15.31A11.12,11.12,0,0,0,222,237.45l-3.83-9.81A12.14,12.14,0,0,1,220.58,215a112,112,0,0,0,10.82-13.55,12.16,12.16,0,0,1,11.79-5.15l10.44,1.57a11.13,11.13,0,0,0,12-6.73,143.62,143.62,0,0,0,5.24-15,142,142,0,0,0,3.52-15.38,11.15,11.15,0,0,0-6.55-12.09l-9.66-4.23a12.14,12.14,0,0,1-7.24-10.64A111.51,111.51,0,0,0,249,116.61a12.1,12.1,0,0,1,4.71-12l8.47-6.24a11.11,11.11,0,0,0,3.75-13.17,139.81,139.81,0,0,0-15.34-27.82,11.12,11.12,0,0,0-13.11-3.85l-9.82,3.83A12.12,12.12,0,0,1,215,55a111.65,111.65,0,0,0-13.61-10.85,12.1,12.1,0,0,1-5.14-11.83l1.58-10.36a11.13,11.13,0,0,0-6.73-12,140,140,0,0,0-14.94-5.23,142,142,0,0,0-15.38-3.52,11.12,11.12,0,0,0-12.08,6.55l-4.24,9.66a12.12,12.12,0,0,1-10.64,7.24,110.4,110.4,0,0,0-17.24,1.92,12.1,12.1,0,0,1-12-4.68l-6.26-8.46A11.1,11.1,0,0,0,85.24,9.66,137.88,137.88,0,0,0,57.45,25a11.1,11.1,0,0,0-3.87,13.13L57.44,48A12.14,12.14,0,0,1,55,60.62,112.66,112.66,0,0,0,44.15,74.19a12.14,12.14,0,0,1-11.77,5.1L21.9,77.71a11.17,11.17,0,0,0-12,6.74A142.75,142.75,0,0,0,1.16,114.8a11.13,11.13,0,0,0,6.55,12.08l9.71,4.26a12.12,12.12,0,0,1,7.23,10.58,112.26,112.26,0,0,0,2,17.2,12.14,12.14,0,0,1-4.69,12l-8.52,6.29a11.13,11.13,0,0,0-3.73,13.17,139.13,139.13,0,0,0,15.36,27.76A11.12,11.12,0,0,0,38.16,222l9.8-3.82A11.86,11.86,0,0,1,52.34,217.35Z"/></g></g></svg>