<svg xmlns="http://www.w3.org/2000/svg" viewBox="0 0 655 654.99">
    <g>
        <g>
            <path fill="#418FDE" d="M327.5,655a331.57,331.57,0,0,1-37.24-2.08,29.73,29.73,0,0,1-26.13-25.71l-3.24-24.46a24.67,24.67,0,0,0-16.72-20.14,262.23,262.23,0,0,1-38-15.72,24.67,24.67,0,0,0-26.06,2.4l-19.54,14.94a29.66,29.66,0,0,1-36.43-.16,327.84,327.84,0,0,1-53.1-53,29.62,29.62,0,0,1-.21-36.5l15-19.67a24.65,24.65,0,0,0,2.39-26.11,267.16,267.16,0,0,1-15.8-37.87,24.69,24.69,0,0,0-20.11-16.6l-24.57-3.26A29.72,29.72,0,0,1,2.08,364.93a336.2,336.2,0,0,1,0-74.68,29.73,29.73,0,0,1,25.71-26.13l24.57-3.26a24.67,24.67,0,0,0,20.11-16.6A270.45,270.45,0,0,1,88.33,206.2a24.67,24.67,0,0,0-2.42-26.07l-15.08-19.7A29.64,29.64,0,0,1,71,123.92a327.37,327.37,0,0,1,53.1-53,29.65,29.65,0,0,1,36.43-.17L180.11,85.7a24.67,24.67,0,0,0,26.06,2.4,261.77,261.77,0,0,1,38-15.72,24.67,24.67,0,0,0,16.72-20.14l3.24-24.46A29.73,29.73,0,0,1,290.26,2.07a337.79,337.79,0,0,1,74.61,0A29.72,29.72,0,0,1,391,27.87l3.15,24.31A24.65,24.65,0,0,0,410.89,72.4,264.78,264.78,0,0,1,449,88.16a24.69,24.69,0,0,0,26-2.43l19.58-15a29.64,29.64,0,0,1,36.45.18,329,329,0,0,1,53.08,53.14,29.63,29.63,0,0,1,.16,36.53l-15,19.51a24.68,24.68,0,0,0-2.45,26.1,263.69,263.69,0,0,1,15.73,37.94,24.66,24.66,0,0,0,20.14,16.71l24.46,3.24a29.73,29.73,0,0,1,25.71,26.13h0a336.2,336.2,0,0,1,0,74.68,29.72,29.72,0,0,1-25.71,26.12l-24.46,3.25A24.65,24.65,0,0,0,582.61,411a264.85,264.85,0,0,1-15.75,38A24.65,24.65,0,0,0,569.27,475l15,19.58a29.66,29.66,0,0,1-.16,36.43,324.18,324.18,0,0,1-53,53,29.63,29.63,0,0,1-36.42.17l-19.59-15a24.67,24.67,0,0,0-26-2.43,264.78,264.78,0,0,1-38.13,15.76,24.65,24.65,0,0,0-16.73,20.22L391,627.12a29.72,29.72,0,0,1-26.14,25.8A335.36,335.36,0,0,1,327.5,655ZM195.1,559.24a29.43,29.43,0,0,1,13.34,3.18,255.37,255.37,0,0,0,37.27,15.42,29.67,29.67,0,0,1,20.13,24.25l3.25,24.45A24.74,24.74,0,0,0,290.82,648a333.78,333.78,0,0,0,73.49,0,24.71,24.71,0,0,0,21.74-21.48l3.15-24.31a29.69,29.69,0,0,1,20.15-24.34,258.47,258.47,0,0,0,37.41-15.46,29.7,29.7,0,0,1,31.32,2.92l19.58,15a24.65,24.65,0,0,0,30.29-.12,318.11,318.11,0,0,0,52.19-52.19,24.65,24.65,0,0,0,.12-30.29l-15-19.57a29.7,29.7,0,0,1-2.9-31.36,257.14,257.14,0,0,0,15.45-37.27,29.7,29.7,0,0,1,24.24-20.11l24.46-3.25A24.71,24.71,0,0,0,648,364.36a331.68,331.68,0,0,0,0-73.55h0a24.74,24.74,0,0,0-21.41-21.73l-24.46-3.25a29.68,29.68,0,0,1-24.24-20.11,258.16,258.16,0,0,0-15.43-37.23,29.69,29.69,0,0,1,2.94-31.41l15-19.51a24.64,24.64,0,0,0-.11-30.37A323.89,323.89,0,0,0,528,74.87a24.65,24.65,0,0,0-30.31-.13l-19.57,15a29.7,29.7,0,0,1-31.32,2.92,260.27,260.27,0,0,0-37.41-15.46A29.69,29.69,0,0,1,389.2,52.82l-3.15-24.31A24.71,24.71,0,0,0,364.31,7a332.56,332.56,0,0,0-73.49,0,24.73,24.73,0,0,0-21.73,21.4l-3.25,24.45a29.67,29.67,0,0,1-20.13,24.25,257.13,257.13,0,0,0-37.27,15.42,29.7,29.7,0,0,1-31.37-2.89L157.53,74.73a24.65,24.65,0,0,0-30.29.12A322.61,322.61,0,0,0,75,127a24.64,24.64,0,0,0-.15,30.36l15.08,19.7a29.7,29.7,0,0,1,2.9,31.38,266.09,266.09,0,0,0-15.56,37.35,29.74,29.74,0,0,1-24.2,20l-24.57,3.26a24.72,24.72,0,0,0-21.4,21.73,330.88,330.88,0,0,0,0,73.55,24.71,24.71,0,0,0,21.4,21.73L53,389.36a29.71,29.71,0,0,1,24.2,20,261.5,261.5,0,0,0,15.5,37.15,29.69,29.69,0,0,1-2.87,31.43l-15,19.67A24.62,24.62,0,0,0,75,528a323.07,323.07,0,0,0,52.29,52.19,24.66,24.66,0,0,0,30.29.11l19.54-14.94A29.69,29.69,0,0,1,195.1,559.24Z"/>
        </g>
    </g>
</svg>