<svg width="1964" height="2196" viewBox="0 0 1964 2196" fill="none" xmlns="http://www.w3.org/2000/svg">
<path fill-rule="evenodd" clip-rule="evenodd" d="M0.310312 603.521L62.8405 495.215C239.433 511.741 382.862 537.181 525.112 568.847C560.291 537.502 599.175 509.254 641.585 484.769C678.242 463.605 716.016 446.128 754.477 432.223C797.751 295.126 847.088 159.626 920.075 0.600799L1045.14 0.600783C1116.87 156.901 1165.76 290.388 1208.5 425.09C1298.31 454.208 1382.44 501.418 1454.92 565.116C1592.03 535.07 1731.4 510.847 1901.46 494.933L1963.99 603.238C1865.1 742.656 1774.45 851.263 1679.8 955.05C1698.65 1049.76 1697.36 1146.31 1677.54 1238.7C1772.9 1343.14 1864.2 1452.33 1963.77 1592.72L1901.24 1701.02C1726.49 1684.67 1584.21 1659.59 1443.42 1628.38C1412.46 1654.37 1378.81 1678.02 1342.58 1698.94C1300.58 1723.19 1257.11 1742.6 1212.83 1757.34C1169.05 1896.71 1119.3 2034.01 1045.14 2195.6L920.075 2195.6C844.546 2031.04 794.343 1891.76 749.977 1749.73C672.653 1721.33 600.082 1679.27 536.229 1624.64C390.423 1657.43 244.134 1683.79 63.0621 1700.74L0.531908 1592.43C105.714 1444.13 201.583 1330.7 302.86 1220.84C287.417 1138.33 287.196 1054.54 301.138 973.449C200.452 864.129 104.947 751.052 0.310312 603.521Z" fill="url(#paint0_radial_728_1146)"/>
<defs>
<radialGradient id="paint0_radial_728_1146" cx="0" cy="0" r="1" gradientUnits="userSpaceOnUse" gradientTransform="translate(1057.04 1119.53) rotate(47.2054) scale(1220.05 1363.23)">
<stop stop-color="#418FDE" stop-opacity="0"/>
<stop offset="1" stop-color="#418FDE"/>
</radialGradient>
</defs>
</svg>
