<svg width="938" height="838" viewBox="0 0 938 838" fill="none" xmlns="http://www.w3.org/2000/svg">
    <path opacity="0.8" fill-rule="evenodd" clip-rule="evenodd" d="M257.89 837.907L211.685 811.23C218.735 735.892 229.588 674.703 243.097 614.017C229.724 599.008 217.673 582.419 207.227 564.326C198.198 548.687 190.742 532.572 184.81 516.163C126.322 497.702 68.5141 476.653 0.671075 445.516L0.671092 392.162C67.3517 361.558 124.3 340.701 181.767 322.466C194.189 284.153 214.329 248.26 241.505 217.34C228.686 158.846 218.352 99.3857 211.563 26.8372L257.768 0.160459C317.247 42.3461 363.581 81.0201 407.858 121.401C448.265 113.359 489.456 113.91 528.873 122.367C573.429 81.6832 620.01 42.7332 679.901 0.255343L726.107 26.932C719.13 101.484 708.429 162.181 695.116 222.246C706.202 235.456 716.295 249.812 725.216 265.264C735.562 283.183 743.842 301.728 750.131 320.622C809.589 339.299 868.166 360.522 937.104 392.162L937.104 445.516C866.898 477.738 807.481 499.156 746.888 518.083C734.768 551.071 716.828 582.032 693.521 609.273C707.508 671.477 718.756 733.887 725.985 811.136L679.78 837.812C616.512 792.939 568.117 752.04 521.25 708.833C486.048 715.421 450.306 715.515 415.709 709.567C369.071 752.522 320.83 793.267 257.89 837.907Z" fill="url(#paint0_radial_735_1186)"/>
    <defs>
    <radialGradient id="paint0_radial_735_1186" cx="0" cy="0" r="1" gradientUnits="userSpaceOnUse" gradientTransform="translate(478.029 387.082) rotate(-42.7946) scale(520.499 581.582)">
    <stop stop-color="#418FDE" stop-opacity="0"/>
    <stop offset="1" stop-color="#418FDE"/>
    </radialGradient>
    </defs>
</svg>

