<svg width="99" height="75" viewBox="0 0 99 75" fill="none" xmlns="http://www.w3.org/2000/svg">
    <path d="M33.3728 65.3308C37.9832 69.9866 44.0655 72.8975 50.5819 73.5668C57.0984 74.2361 63.645 72.6223 69.1048 69.0009C74.5645 65.3794 78.599 59.9747 80.5197 53.709C82.4404 47.4433 82.1283 40.7049 79.6367 34.6438C77.1452 28.5826 72.6285 23.5742 66.8574 20.4734C61.0864 17.3725 54.4186 16.3713 47.992 17.6405C41.5653 18.9098 35.7781 22.3709 31.6178 27.4332C27.4574 32.4956 25.1819 38.8454 25.1794 45.3991H31.3766L17.1296 63.7775L3 45.5166L9.61469 45.3991C9.54392 39.5942 10.6256 33.833 12.797 28.4495C14.9685 23.0659 18.1864 18.1672 22.2644 14.0372C26.3424 9.90728 31.1992 6.62828 36.5533 4.39033C41.9075 2.15238 47.6524 1 53.455 1C59.2576 1 65.0025 2.15238 70.3566 4.39033C75.7108 6.62828 80.5676 9.90728 84.6456 14.0372C88.7235 18.1672 91.9415 23.0659 94.1129 28.4495C96.2844 33.833 97.3661 39.5942 97.2953 45.3991" stroke="#418FDE" stroke-width="2" stroke-miterlimit="10" stroke-linecap="round"/>
    <path d="M64.7371 54.9538C62.2908 59.5223 58.155 62.4919 53.4582 62.4919C45.9498 62.4919 39.8569 54.8364 39.8569 45.3992C39.8569 35.9619 45.9498 28.2999 53.4582 28.2999C57.5874 28.2999 61.2862 30.6103 63.7846 34.2651" stroke="#418FDE" stroke-width="2" stroke-miterlimit="10" stroke-linecap="round"/>
    <path d="M36.9082 40.0996H51.0313" stroke="#418FDE" stroke-width="2" stroke-miterlimit="10" stroke-linecap="round"/>
    <path d="M36.9082 50.0328H51.0313" stroke="#418FDE" stroke-width="2" stroke-miterlimit="10" stroke-linecap="round"/>
</svg>