<svg width="64" height="78" viewBox="0 0 64 78" fill="none" xmlns="http://www.w3.org/2000/svg">
    <path d="M55.6282 76.7722V69.3049C55.6282 48.911 37.6865 44.7216 37.6865 39.0725" stroke="#418FDE" stroke-width="2" stroke-miterlimit="10" stroke-linecap="round"/>
    <path d="M8.60645 76.7722V69.3049C8.60645 48.911 26.5438 44.7216 26.5438 39.0725" stroke="#418FDE" stroke-width="2" stroke-miterlimit="10" stroke-linecap="round"/>
    <path d="M8.60645 1.40723V8.87462C8.60645 29.2685 26.5438 33.4578 26.5438 39.107" stroke="#418FDE" stroke-width="2" stroke-miterlimit="10" stroke-linecap="round"/>
    <path d="M55.6282 1.40723V8.87462C55.6282 29.2685 37.6865 33.4578 37.6865 39.107" stroke="#418FDE" stroke-width="2" stroke-miterlimit="10" stroke-linecap="round"/>
    <path d="M62.8266 1.40723H1.40381" stroke="#418FDE" stroke-width="2" stroke-miterlimit="10" stroke-linecap="round"/>
    <path d="M62.8266 76.7722H1.40381" stroke="#418FDE" stroke-width="2" stroke-miterlimit="10" stroke-linecap="round"/>
    <path d="M17.5752 22.2464C25.2246 15.8198 37.773 27.2865 45.6587 22.2464" stroke="#418FDE" stroke-width="2" stroke-miterlimit="10" stroke-linecap="round"/>
    <path d="M13.4473 70.7848C21.5028 59.8235 43.7457 60.3519 50.3812 70.7848" stroke="#418FDE" stroke-width="2" stroke-miterlimit="10" stroke-linecap="round"/>
</svg>