<svg width="90" height="94" viewBox="0 0 90 94" fill="none" xmlns="http://www.w3.org/2000/svg">
    <path d="M17.4907 92.8185L23.3761 86.9369C25.1195 85.205 27.4777 84.2329 29.9359 84.2327H56.8334C58.1852 84.233 59.5211 83.9413 60.7496 83.3776C61.9782 82.814 63.0703 81.9916 63.9512 80.967L87.7817 53.2518C88.5036 52.414 88.8662 51.3257 88.7911 50.2226C88.716 49.1196 88.2091 48.0904 87.3802 47.3581C86.5634 46.6366 85.498 46.2605 84.4089 46.3091C83.3198 46.3578 82.2922 46.8274 81.543 47.6189L67.8494 62.0622" stroke="#418FDE" stroke-width="2" stroke-miterlimit="10" stroke-linecap="round"/>
    <path d="M1.55713 77.6249L21.1241 62.0542H61.342C63.5179 65.665 61.1613 72.0121 55.9063 72.0121H36.1586" stroke="#418FDE" stroke-width="2" stroke-miterlimit="10" stroke-linecap="round"/>
    <path d="M45.2638 18.6922L34.5851 14.1305L30.0245 3.4585L25.46 14.1305L14.7812 18.6922L25.46 23.2499L30.0245 33.9219L34.5851 23.2499L45.2638 18.6922Z" stroke="#418FDE" stroke-width="2" stroke-miterlimit="10" stroke-linecap="round"/>
    <path d="M65.8786 35.655L59.1221 32.7703L56.2356 26.0181L53.3492 32.7703L46.5967 35.655L53.3492 38.5356L56.2356 45.2879L59.1221 38.5356L65.8786 35.655Z" stroke="#418FDE" stroke-width="2" stroke-miterlimit="10" stroke-linecap="round"/>
</svg>